HIERARCHY
ROOT Hips
{
	OFFSET -0.001795 -0.223333 0.028219
	CHANNELS 6 Xposition Yposition Zposition Zrotation Yrotation Xrotation 
	JOINT LeftUpLeg
	{
		OFFSET 0.069520 -0.091406 -0.006815
		CHANNELS 3 Zrotation Yrotation Xrotation
		JOINT LeftLeg
		{
			OFFSET 0.034277 -0.375199 -0.004496
			CHANNELS 3 Zrotation Yrotation Xrotation
			JOINT LeftFoot
			{
				OFFSET -0.013596 -0.397961 -0.043693
				CHANNELS 3 Zrotation Yrotation Xrotation
				JOINT LeftToe
				{
					OFFSET 0.026358 -0.055791 0.119288
					CHANNELS 3 Zrotation Yrotation Xrotation
					End Site
					{
						OFFSET 0.000000 0.000000 0.000000
					}
				}
			}
		}
	}
	JOINT RightUpLeg
	{
		OFFSET -0.067670 -0.090522 -0.004320
		CHANNELS 3 Zrotation Yrotation Xrotation
		JOINT RightLeg
		{
			OFFSET -0.038290 -0.382569 -0.008850
			CHANNELS 3 Zrotation Yrotation Xrotation
			JOINT RightFoot
			{
				OFFSET 0.015774 -0.398415 -0.042312
				CHANNELS 3 Zrotation Yrotation Xrotation
				JOINT RightToe
				{
					OFFSET -0.025372 -0.048144 0.123348
					CHANNELS 3 Zrotation Yrotation Xrotation
					End Site
					{
						OFFSET 0.000000 0.000000 0.000000
					}
				}
			}
		}
	}
	JOINT Spine
	{
		OFFSET -0.002533 0.108963 -0.026696
		CHANNELS 3 Zrotation Yrotation Xrotation
		JOINT Spine1
		{
			OFFSET 0.005487 0.135180 0.001092
			CHANNELS 3 Zrotation Yrotation Xrotation
			JOINT Spine2
			{
				OFFSET 0.001457 0.052922 0.025425
				CHANNELS 3 Zrotation Yrotation Xrotation
				JOINT Neck
				{
					OFFSET -0.002778 0.213870 -0.042857
					CHANNELS 3 Zrotation Yrotation Xrotation
					JOINT Head
					{
						OFFSET 0.005152 0.064970 0.051349
						CHANNELS 3 Zrotation Yrotation Xrotation
						End Site
						{
							OFFSET 0.000000 0.000000 0.000000
						}
					}
				}
				JOINT LeftShoulder
				{
					OFFSET 0.078845 0.121749 -0.034090
					CHANNELS 3 Zrotation Yrotation Xrotation
					JOINT LeftArm
					{
						OFFSET 0.090977 0.030469 -0.008868
						CHANNELS 3 Zrotation Yrotation Xrotation
						JOINT LeftForeArm
						{
							OFFSET 0.259612 -0.012772 -0.027456
							CHANNELS 3 Zrotation Yrotation Xrotation
							JOINT LeftHand
							{
								OFFSET 0.249234 0.008986 -0.001171
								CHANNELS 3 Zrotation Yrotation Xrotation
								End Site
								{
									OFFSET 0.000000 0.000000 0.000000
								}
							}
						}
					}
				}
				JOINT RightShoulder
				{
					OFFSET -0.081759 0.118833 -0.038615
					CHANNELS 3 Zrotation Yrotation Xrotation
					JOINT RightArm
					{
						OFFSET -0.096012 0.032551 -0.009143
						CHANNELS 3 Zrotation Yrotation Xrotation
						JOINT RightForeArm
						{
							OFFSET -0.253742 -0.013329 -0.021401
							CHANNELS 3 Zrotation Yrotation Xrotation
							JOINT RightHand
							{
								OFFSET -0.255298 0.007772 -0.005559
								CHANNELS 3 Zrotation Yrotation Xrotation
								End Site
								{
									OFFSET 0.000000 0.000000 0.000000
								}
							}
						}
					}
				}
			}
		}
	}
}
MOTION
Frames: 12
Frame Time: 0.050000
0.000000 0.932014 0.000000 -1.795083 1.723957 1.309990 4.174939 -0.192993 -2.138005 -2.764140 0.235975 4.836534 -6.047179 -21.677220 -8.751160 0.000000 0.000000 0.000000 0.192525 0.535225 -5.257841 -1.314609 0.632454 9.954452 -3.760655 -10.619325 5.004900 0.000000 0.000000 0.000000 -1.692391 -0.183857 7.406305 3.287475 0.027838 -27.688091 -1.474394 -0.451071 27.583503 0.326467 0.996442 -17.970067 0.000000 0.000000 0.000000 -7.974138 7.997884 -3.895676 -15.344707 -7.987568 -1.977561 18.893096 -4.969143 -0.550695 0.000000 0.000000 0.000000 -0.831818 -3.445873 -1.192833 19.765206 4.495202 -2.431730 -16.849670 5.591812 -0.229668 0.000000 0.000000 0.000000 
0.000482 0.931964 -0.000024 -2.119695 1.297498 1.466230 4.579038 -0.137146 -1.056874 -2.977372 0.292236 2.709553 -6.130986 -21.307468 -8.293660 0.000000 0.000000 0.000000 0.564848 0.491737 -4.764832 -1.502900 0.609066 8.655174 -3.529295 -10.143202 5.049021 0.000000 0.000000 0.000000 -1.384371 -0.211057 7.564000 3.183316 0.072541 -28.220856 -0.895680 -0.384909 27.187901 -1.474341 2.225745 -18.205485 0.000000 0.000000 0.000000 -7.320524 7.878667 -3.740443 -16.126199 -7.885441 -2.064856 15.473561 -3.734144 -0.276790 0.000000 0.000000 0.000000 -1.319416 -3.612630 -1.218701 20.863340 2.786407 -2.726008 -17.540427 8.700369 -0.636506 0.000000 0.000000 0.000000 
0.000865 0.931334 -0.000218 -2.030727 0.746001 1.134386 4.675512 -0.124893 -0.968980 -3.472110 0.359394 3.343763 -5.878219 -20.919348 -8.646084 0.000000 0.000000 0.000000 -0.097300 0.531013 -5.285586 -0.621204 0.516112 10.119669 -3.360192 -9.716774 4.695881 0.000000 0.000000 0.000000 -0.771261 -0.271702 7.946418 2.269461 0.286892 -29.113061 -0.681635 0.441833 29.372112 -0.876493 1.994436 -20.315280 0.000000 0.000000 0.000000 -7.708651 8.333692 -4.018580 -16.070681 -9.093346 -2.022925 17.309036 -3.581110 -0.321290 0.000000 0.000000 0.000000 -0.378871 -4.770668 -1.701715 20.981332 4.007493 -2.715287 -19.274296 6.298720 -0.359151 0.000000 0.000000 0.000000 
0.001142 0.931291 -0.000364 -2.134051 0.948448 1.011679 4.535234 -0.128114 -1.041332 -3.017899 0.292922 3.647784 -5.833454 -21.080558 -8.864717 0.000000 0.000000 0.000000 -0.076166 0.526889 -5.236627 -0.451910 0.486737 10.288054 -3.429341 -9.877856 4.771167 0.000000 0.000000 0.000000 -1.040562 -0.242713 7.685797 3.002879 0.138132 -29.041579 -1.054058 -0.191108 30.104273 -1.963987 2.645096 -20.641139 0.000000 0.000000 0.000000 -7.285322 9.018505 -4.218028 -17.406474 -8.561525 -2.225967 18.533076 -3.333324 -0.294620 0.000000 0.000000 0.000000 -0.974003 -4.539677 -1.575838 21.280262 3.841199 -2.773029 -19.211450 5.594707 -0.279857 0.000000 0.000000 0.000000 
0.001265 0.931357 -0.000453 -2.195666 0.723577 0.606087 4.448448 -0.129476 -1.194162 -2.800432 0.253126 4.771508 -5.596388 -20.905530 -9.327360 0.000000 0.000000 0.000000 0.034364 0.533990 -5.284759 -0.560089 0.547723 11.114168 -3.357378 -9.731909 4.788665 0.000000 0.000000 0.000000 -1.210474 -0.248793 8.275854 3.837503 -0.039987 -28.804243 -1.201606 0.594742 29.704570 -1.355044 2.312912 -19.503670 0.000000 0.000000 0.000000 -7.434652 8.822500 -4.203707 -17.701579 -8.374566 -2.231928 18.821078 -3.233385 -0.313989 0.000000 0.000000 0.000000 -0.208734 -4.452793 -1.597514 21.325546 3.222800 -2.852007 -19.463630 5.536764 -0.248972 0.000000 0.000000 0.000000 
0.001385 0.931177 -0.000500 -2.123584 1.023455 0.458991 4.104550 -0.145817 -1.508049 -2.297431 0.163022 5.541596 -5.535980 -21.145943 -9.634673 0.000000 0.000000 0.000000 -0.152057 0.521446 -5.203017 -0.331920 0.503392 11.314406 -3.479087 -9.979879 4.760877 0.000000 0.000000 0.000000 -1.426506 -0.232916 8.277204 3.703143 -0.048702 -28.152419 -0.944199 -0.216303 29.607863 -1.553564 2.352245 -19.988895 0.000000 0.000000 0.000000 -7.444581 9.073282 -4.266963 -18.363522 -8.015098 -2.345688 19.945256 -3.018151 -0.282017 0.000000 0.000000 0.000000 -0.599246 -4.711697 -1.657181 22.235327 3.499743 -2.895931 -19.746830 5.631389 -0.288096 0.000000 0.000000 0.000000 
0.001395 0.931234 -0.000685 -2.060451 0.872298 0.284344 4.196389 -0.155019 -1.728858 -2.612407 0.204349 6.290141 -5.469539 -21.047965 -9.737006 0.000000 0.000000 0.000000 -0.171224 0.553242 -5.532883 -0.426357 0.562870 12.195043 -3.448692 -9.924990 4.786559 0.000000 0.000000 0.000000 -1.521204 -0.241848 8.843083 3.834611 -0.078395 -28.146040 -0.999110 -0.105362 29.483566 -1.364934 2.220862 -19.770193 0.000000 0.000000 0.000000 -7.915866 9.020338 -4.310585 -18.035705 -7.766580 -2.333364 20.474883 -2.294640 -0.194910 0.000000 0.000000 0.000000 0.217859 -4.758608 -1.729194 22.023051 3.340180 -2.892507 -20.351007 5.940551 -0.351919 0.000000 0.000000 0.000000 
0.001447 0.930963 -0.000962 -2.194058 0.725288 0.166683 4.372034 -0.171013 -2.079278 -2.700445 0.210215 7.154218 -5.302202 -20.931219 -10.074801 0.000000 0.000000 0.000000 -0.028685 0.609373 -6.054830 -0.420462 0.610696 13.288444 -3.429192 -9.894971 4.819072 0.000000 0.000000 0.000000 -1.567031 -0.250494 9.262597 3.884460 -0.097427 -28.037372 -0.806420 -0.317467 29.496844 -1.325130 2.144815 -19.850624 0.000000 0.000000 0.000000 -8.323677 9.127460 -4.389524 -17.910312 -7.370872 -2.369814 20.971323 -1.926381 -0.137511 0.000000 0.000000 0.000000 0.485213 -5.041016 -1.850997 22.171608 3.848145 -2.843211 -20.904768 6.003708 -0.389782 0.000000 0.000000 0.000000 
0.001513 0.930807 -0.001302 -2.254056 0.449621 0.118569 4.428052 -0.168117 -2.085918 -2.743176 0.220027 7.297904 -5.181944 -20.692156 -10.210932 0.000000 0.000000 0.000000 -0.020542 0.642619 -6.383396 -0.357814 0.627887 13.869013 -3.337514 -9.707077 4.818398 0.000000 0.000000 0.000000 -1.661466 -0.249613 9.582791 4.018632 -0.119479 -28.147948 -0.687842 -0.286447 29.424175 -1.297005 2.111508 -20.081751 0.000000 0.000000 0.000000 -8.739366 9.185847 -4.461359 -17.807344 -7.154829 -2.383992 21.461771 -1.634305 -0.095136 0.000000 0.000000 0.000000 0.774733 -5.034794 -1.870791 21.904239 4.164891 -2.768595 -21.514714 6.213656 -0.452314 0.000000 0.000000 0.000000 
0.001581 0.930725 -0.001651 -2.389447 0.253190 -0.048582 4.615705 -0.159842 -2.007049 -2.852090 0.239856 7.500451 -5.094444 -20.548926 -10.337298 0.000000 0.000000 0.000000 0.084144 0.686332 -6.777882 -0.292917 0.657878 14.805608 -3.273774 -9.605858 4.941080 0.000000 0.000000 0.000000 -1.663444 -0.261092 9.998505 4.080728 -0.138174 -28.112044 -0.588736 -0.309911 29.194644 -1.399039 2.161707 -20.189943 0.000000 0.000000 0.000000 -9.165079 9.229470 -4.528581 -17.623689 -6.826415 -2.391582 21.894342 -1.351602 -0.052704 0.000000 0.000000 0.000000 1.065656 -4.963998 -1.867016 21.564241 4.315622 -2.696453 -22.040502 6.386323 -0.510825 0.000000 0.000000 0.000000 
0.001688 0.930734 -0.001994 -2.515066 0.048603 -0.010569 4.731888 -0.151750 -1.885963 -2.862317 0.247347 7.230600 -5.040610 -20.362014 -10.344239 0.000000 0.000000 0.000000 0.021722 0.700819 -6.941367 0.012478 0.595501 14.929292 -3.173337 -9.410984 4.999220 0.000000 0.000000 0.000000 -1.679889 -0.266137 10.273498 4.148064 -0.142336 -28.337030 -0.539140 -0.141195 29.005767 -1.301214 2.115856 -20.454830 0.000000 0.000000 0.000000 -8.979081 9.206256 -4.499279 -17.527008 -6.585939 -2.391489 21.742630 -1.194202 -0.031803 0.000000 0.000000 0.000000 1.110844 -5.170554 -1.947461 21.402925 4.510569 -2.646403 -22.405707 6.661548 -0.568248 0.000000 0.000000 0.000000 
0.001820 0.930523 -0.002356 -2.615999 -0.118028 0.047462 4.741734 -0.143909 -1.747335 -2.731849 0.230490 6.885802 -4.965976 -20.196120 -10.418806 0.000000 0.000000 0.000000 0.044100 0.703075 -6.952921 0.120013 0.567710 14.765223 -3.106721 -9.254357 4.924498 0.000000 0.000000 0.000000 -1.582355 -0.274451 10.264907 4.150216 -0.135788 -28.480729 -0.474236 -0.143132 28.826297 -1.533689 2.265262 -20.763132 0.000000 0.000000 0.000000 -8.600111 9.198529 -4.436008 -17.694132 -6.283267 -2.429428 21.360265 -1.068412 -0.004502 0.000000 0.000000 0.000000 0.752620 -5.182384 -1.921937 21.548299 4.591802 -2.636279 -22.491073 7.067680 -0.644606 0.000000 0.000000 0.000000 
